# xmcd CD database file
#
# Track frame offsets:
#	150
#	22105
#	40085
#	63717
#	76940
#	95345
#	114317
#	136685
#	152692
#	168782
#	191612
#	203647
#	227692
#	243705
#	263872
#	281930
#
# Disc length: 4058 seconds
#
# Revision: 2
# Processed by: cddbd v1.5.1PL0 Copyright (c) Steve Scherf et al.
# Submitted via: CdAid (MTCDDB.DLL V2003.12.21)
#
DISCID=d60fd810
DTITLE=Blues Revue Magazine - Sampler - Blues Music Sampler
DYEAR=2005
DGENRE=Blues
TTITLE0=Buried Alive in the Blues - Chicago Blues Reunion
TTITLE1=Way Down South - Steve Krase and the In Crowd
TTITLE2=Dry as a Bone - Lauren Ellis
TTITLE3=Better To Have It - Bobby Purify
TTITLE4=St. Peter's Blues - Bill Sheffield
TTITLE5=Can't Say No - Teresa James and the Rhythm Tramps
TTITLE6=USB - The Jon Klein Combine
TTITLE7=I'm Gonna Love You Anyway - Buckwheat Zydeco
TTITLE8=Weasel Be Poppin' - Michelle Shocked
TTITLE9=Black Night - Chris Cotton
TTITLE10=That's Alright - Mare Edstrom
TTITLE11=Designated Drinker - John 'Juke' Logan
TTITLE12=Chester's Blues - Texas Son
TTITLE13=Devil in My Shoes - Rose City Kings
TTITLE14=I Heard It Before - Traffic Jam
TTITLE15=Keep Doin' What'ya Doin' - The Billy Gibson Band
EXTD=ID3G:   0 YEAR: 2005
EXTT0=
EXTT1=
EXTT2=
EXTT3=
EXTT4=
EXTT5=
EXTT6=
EXTT7=
EXTT8=
EXTT9=
EXTT10=
EXTT11=
EXTT12=
EXTT13=
EXTT14=
EXTT15=
PLAYORDER=
